<mxfile host="Electron" modified="2023-11-27T23:07:57.367Z" agent="Mozilla/5.0 (Windows NT 10.0; Win64; x64) AppleWebKit/537.36 (KHTML, like Gecko) draw.io/22.1.2 Chrome/114.0.5735.289 Electron/25.9.4 Safari/537.36" etag="jVCLAZb51v5p01f-xjR-" version="22.1.2" type="device">
  <diagram id="C5RBs43oDa-KdzZeNtuy" name="Page-1">
    <mxGraphModel dx="1900" dy="3404" grid="1" gridSize="10" guides="1" tooltips="1" connect="1" arrows="1" fold="1" page="1" pageScale="1" pageWidth="1120" pageHeight="1450" math="0" shadow="0">
      <root>
        <mxCell id="WIyWlLk6GJQsqaUBKTNV-0" />
        <mxCell id="WIyWlLk6GJQsqaUBKTNV-1" parent="WIyWlLk6GJQsqaUBKTNV-0" />
        <mxCell id="bZ6SmDlan108wGOM-JAQ-2" value="" style="shape=folder;fontStyle=1;spacingTop=10;tabWidth=130;tabHeight=20;tabPosition=left;html=1;strokeWidth=2;strokeColor=#660033;" parent="WIyWlLk6GJQsqaUBKTNV-1" vertex="1">
          <mxGeometry x="-1110.0027659574469" y="-2520" width="690" height="280" as="geometry" />
        </mxCell>
        <mxCell id="2OxJAYzB0VSOcrcpk9Fz-35" value="" style="group" parent="WIyWlLk6GJQsqaUBKTNV-1" vertex="1" connectable="0">
          <mxGeometry x="-1110" y="-2200" width="690" height="310" as="geometry" />
        </mxCell>
        <mxCell id="bZ6SmDlan108wGOM-JAQ-4" value="" style="shape=folder;fontStyle=1;spacingTop=10;tabWidth=80;tabHeight=20;tabPosition=left;html=1;strokeWidth=2;strokeColor=#000099;" parent="2OxJAYzB0VSOcrcpk9Fz-35" vertex="1">
          <mxGeometry width="690" height="310" as="geometry" />
        </mxCell>
        <mxCell id="xL1izJkVqLdVVamuMfSx-6" value="&lt;h1 style=&quot;font-size: 15px;&quot;&gt;controller&lt;/h1&gt;" style="text;html=1;strokeColor=none;fillColor=none;spacing=5;spacingTop=-20;whiteSpace=wrap;overflow=hidden;rounded=0;fontSize=15;" parent="2OxJAYzB0VSOcrcpk9Fz-35" vertex="1">
          <mxGeometry width="98.57142857142858" height="20" as="geometry" />
        </mxCell>
        <mxCell id="oio7H8gZdXNdozRF6KR3-0" value="RoleController" style="swimlane;fontStyle=1;align=center;verticalAlign=top;childLayout=stackLayout;horizontal=1;startSize=26;horizontalStack=0;resizeParent=1;resizeLast=0;collapsible=1;marginBottom=0;rounded=0;shadow=0;strokeWidth=1;fillColor=#cce5ff;strokeColor=#36393d;fontSize=13;" vertex="1" parent="2OxJAYzB0VSOcrcpk9Fz-35">
          <mxGeometry x="530" y="210" width="120" height="80" as="geometry">
            <mxRectangle x="230" y="140" width="160" height="26" as="alternateBounds" />
          </mxGeometry>
        </mxCell>
        <mxCell id="oio7H8gZdXNdozRF6KR3-1" value="Â " style="text;align=left;verticalAlign=top;spacingLeft=4;spacingRight=4;overflow=hidden;rotatable=0;points=[[0,0.5],[1,0.5]];portConstraint=eastwest;fillColor=#cce5ff;strokeColor=#36393d;" vertex="1" parent="oio7H8gZdXNdozRF6KR3-0">
          <mxGeometry y="26" width="120" height="26" as="geometry" />
        </mxCell>
        <mxCell id="oio7H8gZdXNdozRF6KR3-2" value="+ run()" style="text;align=left;verticalAlign=top;spacingLeft=4;spacingRight=4;overflow=hidden;rotatable=0;points=[[0,0.5],[1,0.5]];portConstraint=eastwest;fillColor=#cce5ff;strokeColor=#36393d;" vertex="1" parent="oio7H8gZdXNdozRF6KR3-0">
          <mxGeometry y="52" width="120" height="28" as="geometry" />
        </mxCell>
        <mxCell id="bZ6SmDlan108wGOM-JAQ-6" value="" style="shape=folder;fontStyle=1;spacingTop=10;tabWidth=60;tabHeight=20;tabPosition=left;html=1;strokeWidth=2;strokeColor=#994C00;" parent="WIyWlLk6GJQsqaUBKTNV-1" vertex="1">
          <mxGeometry x="-350" y="-2820" width="280" height="930" as="geometry" />
        </mxCell>
        <mxCell id="bZ6SmDlan108wGOM-JAQ-1" value="" style="shape=folder;fontStyle=1;spacingTop=10;tabWidth=50;tabHeight=20;tabPosition=left;html=1;strokeWidth=2;strokeColor=#006600;" parent="WIyWlLk6GJQsqaUBKTNV-1" vertex="1">
          <mxGeometry x="-1110" y="-2820" width="690" height="280" as="geometry" />
        </mxCell>
        <mxCell id="E7oqF2Y1Bg3r5n-uWhPA-0" value="View" style="swimlane;fontStyle=1;align=center;verticalAlign=top;childLayout=stackLayout;horizontal=1;startSize=26;horizontalStack=0;resizeParent=1;resizeLast=0;collapsible=1;marginBottom=0;rounded=0;shadow=0;strokeWidth=1;fillColor=#CDEB8B;strokeColor=#2D7600;fontSize=13;fontColor=#000000;" parent="WIyWlLk6GJQsqaUBKTNV-1" vertex="1">
          <mxGeometry x="-790" y="-2778" width="120" height="78" as="geometry">
            <mxRectangle x="230" y="140" width="160" height="26" as="alternateBounds" />
          </mxGeometry>
        </mxCell>
        <mxCell id="E7oqF2Y1Bg3r5n-uWhPA-1" value="" style="text;align=left;verticalAlign=top;spacingLeft=4;spacingRight=4;overflow=hidden;rotatable=0;points=[[0,0.5],[1,0.5]];portConstraint=eastwest;fillColor=#cdeb8b;strokeColor=#36393d;" parent="E7oqF2Y1Bg3r5n-uWhPA-0" vertex="1">
          <mxGeometry y="26" width="120" height="26" as="geometry" />
        </mxCell>
        <mxCell id="E7oqF2Y1Bg3r5n-uWhPA-77" value="+ show()" style="text;align=left;verticalAlign=top;spacingLeft=4;spacingRight=4;overflow=hidden;rotatable=0;points=[[0,0.5],[1,0.5]];portConstraint=eastwest;fillColor=#cdeb8b;strokeColor=#36393d;" parent="E7oqF2Y1Bg3r5n-uWhPA-0" vertex="1">
          <mxGeometry y="52" width="120" height="26" as="geometry" />
        </mxCell>
        <mxCell id="E7oqF2Y1Bg3r5n-uWhPA-3" value="" style="endArrow=block;endSize=14;endFill=0;shadow=0;strokeWidth=1;rounded=0;elbow=vertical;fillColor=#cdeb8b;strokeColor=#36393d;" parent="WIyWlLk6GJQsqaUBKTNV-1" source="E7oqF2Y1Bg3r5n-uWhPA-91" target="E7oqF2Y1Bg3r5n-uWhPA-0" edge="1">
          <mxGeometry width="160" relative="1" as="geometry">
            <mxPoint x="-870" y="-2590" as="sourcePoint" />
            <mxPoint x="-970" y="-2679" as="targetPoint" />
          </mxGeometry>
        </mxCell>
        <mxCell id="2OxJAYzB0VSOcrcpk9Fz-2" value="is a" style="edgeLabel;html=1;align=center;verticalAlign=middle;resizable=0;points=[];" parent="E7oqF2Y1Bg3r5n-uWhPA-3" vertex="1" connectable="0">
          <mxGeometry x="-0.1616" relative="1" as="geometry">
            <mxPoint x="21" y="-1" as="offset" />
          </mxGeometry>
        </mxCell>
        <mxCell id="E7oqF2Y1Bg3r5n-uWhPA-19" value="is a" style="endArrow=block;endSize=14;endFill=0;shadow=0;strokeWidth=1;rounded=0;elbow=vertical;fillColor=#cdeb8b;strokeColor=#36393d;fontSize=13;" parent="WIyWlLk6GJQsqaUBKTNV-1" source="E7oqF2Y1Bg3r5n-uWhPA-85" target="E7oqF2Y1Bg3r5n-uWhPA-0" edge="1">
          <mxGeometry x="-0.024" y="17" width="160" relative="1" as="geometry">
            <mxPoint x="-980" y="-2280" as="sourcePoint" />
            <mxPoint x="-1110" y="-2420" as="targetPoint" />
            <mxPoint y="-1" as="offset" />
          </mxGeometry>
        </mxCell>
        <mxCell id="E7oqF2Y1Bg3r5n-uWhPA-20" value="" style="endArrow=block;endSize=14;endFill=0;shadow=0;strokeWidth=1;rounded=0;elbow=vertical;fillColor=#cdeb8b;strokeColor=#36393d;" parent="WIyWlLk6GJQsqaUBKTNV-1" source="E7oqF2Y1Bg3r5n-uWhPA-82" target="E7oqF2Y1Bg3r5n-uWhPA-0" edge="1">
          <mxGeometry width="160" relative="1" as="geometry">
            <mxPoint x="-840" y="-2320" as="sourcePoint" />
            <mxPoint x="-970" y="-2460" as="targetPoint" />
          </mxGeometry>
        </mxCell>
        <mxCell id="2OxJAYzB0VSOcrcpk9Fz-1" value="&lt;font style=&quot;font-size: 13px;&quot;&gt;is a&lt;/font&gt;" style="edgeLabel;html=1;align=center;verticalAlign=middle;resizable=0;points=[];" parent="E7oqF2Y1Bg3r5n-uWhPA-20" vertex="1" connectable="0">
          <mxGeometry x="-0.0894" y="-2" relative="1" as="geometry">
            <mxPoint x="10" y="-17" as="offset" />
          </mxGeometry>
        </mxCell>
        <mxCell id="E7oqF2Y1Bg3r5n-uWhPA-21" value="" style="endArrow=block;endSize=14;endFill=0;shadow=0;strokeWidth=1;rounded=0;elbow=vertical;fillColor=#cdeb8b;strokeColor=#36393d;" parent="WIyWlLk6GJQsqaUBKTNV-1" source="E7oqF2Y1Bg3r5n-uWhPA-94" target="E7oqF2Y1Bg3r5n-uWhPA-0" edge="1">
          <mxGeometry width="160" relative="1" as="geometry">
            <mxPoint x="-620" y="-2310" as="sourcePoint" />
            <mxPoint x="-750" y="-2450" as="targetPoint" />
          </mxGeometry>
        </mxCell>
        <mxCell id="2OxJAYzB0VSOcrcpk9Fz-3" value="is a" style="edgeLabel;html=1;align=center;verticalAlign=middle;resizable=0;points=[];" parent="E7oqF2Y1Bg3r5n-uWhPA-21" vertex="1" connectable="0">
          <mxGeometry x="-0.0171" y="2" relative="1" as="geometry">
            <mxPoint x="22" y="6" as="offset" />
          </mxGeometry>
        </mxCell>
        <mxCell id="E7oqF2Y1Bg3r5n-uWhPA-22" value="" style="endArrow=block;endSize=14;endFill=0;shadow=0;strokeWidth=1;rounded=0;elbow=vertical;fillColor=#cdeb8b;strokeColor=#36393d;" parent="WIyWlLk6GJQsqaUBKTNV-1" source="E7oqF2Y1Bg3r5n-uWhPA-97" target="E7oqF2Y1Bg3r5n-uWhPA-0" edge="1">
          <mxGeometry width="160" relative="1" as="geometry">
            <mxPoint x="-510" y="-2720" as="sourcePoint" />
            <mxPoint x="-640" y="-2860" as="targetPoint" />
          </mxGeometry>
        </mxCell>
        <mxCell id="2OxJAYzB0VSOcrcpk9Fz-4" value="is a" style="edgeLabel;html=1;align=center;verticalAlign=middle;resizable=0;points=[];" parent="E7oqF2Y1Bg3r5n-uWhPA-22" vertex="1" connectable="0">
          <mxGeometry x="-0.0287" y="-2" relative="1" as="geometry">
            <mxPoint x="13" y="-5" as="offset" />
          </mxGeometry>
        </mxCell>
        <mxCell id="E7oqF2Y1Bg3r5n-uWhPA-82" value="Home" style="swimlane;fontStyle=1;align=center;verticalAlign=top;childLayout=stackLayout;horizontal=1;startSize=26;horizontalStack=0;resizeParent=1;resizeLast=0;collapsible=1;marginBottom=0;rounded=0;shadow=0;strokeWidth=1;fillColor=#cdeb8b;strokeColor=#36393d;fontSize=13;" parent="WIyWlLk6GJQsqaUBKTNV-1" vertex="1">
          <mxGeometry x="-1020" y="-2780" width="120" height="80" as="geometry">
            <mxRectangle x="230" y="140" width="160" height="26" as="alternateBounds" />
          </mxGeometry>
        </mxCell>
        <mxCell id="E7oqF2Y1Bg3r5n-uWhPA-83" value="Â " style="text;align=left;verticalAlign=top;spacingLeft=4;spacingRight=4;overflow=hidden;rotatable=0;points=[[0,0.5],[1,0.5]];portConstraint=eastwest;fillColor=#cdeb8b;strokeColor=#36393d;" parent="E7oqF2Y1Bg3r5n-uWhPA-82" vertex="1">
          <mxGeometry y="26" width="120" height="26" as="geometry" />
        </mxCell>
        <mxCell id="E7oqF2Y1Bg3r5n-uWhPA-84" value="+ show()" style="text;align=left;verticalAlign=top;spacingLeft=4;spacingRight=4;overflow=hidden;rotatable=0;points=[[0,0.5],[1,0.5]];portConstraint=eastwest;fillColor=#cdeb8b;strokeColor=#36393d;" parent="E7oqF2Y1Bg3r5n-uWhPA-82" vertex="1">
          <mxGeometry y="52" width="120" height="28" as="geometry" />
        </mxCell>
        <mxCell id="E7oqF2Y1Bg3r5n-uWhPA-85" value="ProjectListÂ " style="swimlane;fontStyle=1;align=center;verticalAlign=top;childLayout=stackLayout;horizontal=1;startSize=26;horizontalStack=0;resizeParent=1;resizeLast=0;collapsible=1;marginBottom=0;rounded=0;shadow=0;strokeWidth=1;fillColor=#cdeb8b;strokeColor=#36393d;fontSize=13;" parent="WIyWlLk6GJQsqaUBKTNV-1" vertex="1">
          <mxGeometry x="-1020" y="-2630" width="120" height="80" as="geometry">
            <mxRectangle x="230" y="140" width="160" height="26" as="alternateBounds" />
          </mxGeometry>
        </mxCell>
        <mxCell id="E7oqF2Y1Bg3r5n-uWhPA-86" value="Â " style="text;align=left;verticalAlign=top;spacingLeft=4;spacingRight=4;overflow=hidden;rotatable=0;points=[[0,0.5],[1,0.5]];portConstraint=eastwest;fillColor=#cdeb8b;strokeColor=#36393d;" parent="E7oqF2Y1Bg3r5n-uWhPA-85" vertex="1">
          <mxGeometry y="26" width="120" height="26" as="geometry" />
        </mxCell>
        <mxCell id="E7oqF2Y1Bg3r5n-uWhPA-87" value="+ show()" style="text;align=left;verticalAlign=top;spacingLeft=4;spacingRight=4;overflow=hidden;rotatable=0;points=[[0,0.5],[1,0.5]];portConstraint=eastwest;fillColor=#cdeb8b;strokeColor=#36393d;" parent="E7oqF2Y1Bg3r5n-uWhPA-85" vertex="1">
          <mxGeometry y="52" width="120" height="28" as="geometry" />
        </mxCell>
        <mxCell id="E7oqF2Y1Bg3r5n-uWhPA-91" value="ProjectEdit" style="swimlane;fontStyle=1;align=center;verticalAlign=top;childLayout=stackLayout;horizontal=1;startSize=26;horizontalStack=0;resizeParent=1;resizeLast=0;collapsible=1;marginBottom=0;rounded=0;shadow=0;strokeWidth=1;fillColor=#cdeb8b;strokeColor=#36393d;fontSize=13;" parent="WIyWlLk6GJQsqaUBKTNV-1" vertex="1">
          <mxGeometry x="-870" y="-2630" width="120" height="80" as="geometry">
            <mxRectangle x="230" y="140" width="160" height="26" as="alternateBounds" />
          </mxGeometry>
        </mxCell>
        <mxCell id="E7oqF2Y1Bg3r5n-uWhPA-92" value="Â " style="text;align=left;verticalAlign=top;spacingLeft=4;spacingRight=4;overflow=hidden;rotatable=0;points=[[0,0.5],[1,0.5]];portConstraint=eastwest;fillColor=#cdeb8b;strokeColor=#36393d;" parent="E7oqF2Y1Bg3r5n-uWhPA-91" vertex="1">
          <mxGeometry y="26" width="120" height="26" as="geometry" />
        </mxCell>
        <mxCell id="E7oqF2Y1Bg3r5n-uWhPA-93" value="+ show()" style="text;align=left;verticalAlign=top;spacingLeft=4;spacingRight=4;overflow=hidden;rotatable=0;points=[[0,0.5],[1,0.5]];portConstraint=eastwest;fillColor=#cdeb8b;strokeColor=#36393d;" parent="E7oqF2Y1Bg3r5n-uWhPA-91" vertex="1">
          <mxGeometry y="52" width="120" height="28" as="geometry" />
        </mxCell>
        <mxCell id="E7oqF2Y1Bg3r5n-uWhPA-94" value="TaskList" style="swimlane;fontStyle=1;align=center;verticalAlign=top;childLayout=stackLayout;horizontal=1;startSize=26;horizontalStack=0;resizeParent=1;resizeLast=0;collapsible=1;marginBottom=0;rounded=0;shadow=0;strokeWidth=1;fillColor=#cdeb8b;strokeColor=#36393d;fontSize=13;" parent="WIyWlLk6GJQsqaUBKTNV-1" vertex="1">
          <mxGeometry x="-720" y="-2630" width="120" height="80" as="geometry">
            <mxRectangle x="230" y="140" width="160" height="26" as="alternateBounds" />
          </mxGeometry>
        </mxCell>
        <mxCell id="E7oqF2Y1Bg3r5n-uWhPA-95" value="Â " style="text;align=left;verticalAlign=top;spacingLeft=4;spacingRight=4;overflow=hidden;rotatable=0;points=[[0,0.5],[1,0.5]];portConstraint=eastwest;fillColor=#cdeb8b;strokeColor=#36393d;" parent="E7oqF2Y1Bg3r5n-uWhPA-94" vertex="1">
          <mxGeometry y="26" width="120" height="26" as="geometry" />
        </mxCell>
        <mxCell id="E7oqF2Y1Bg3r5n-uWhPA-96" value="+ show()" style="text;align=left;verticalAlign=top;spacingLeft=4;spacingRight=4;overflow=hidden;rotatable=0;points=[[0,0.5],[1,0.5]];portConstraint=eastwest;fillColor=#cdeb8b;strokeColor=#36393d;" parent="E7oqF2Y1Bg3r5n-uWhPA-94" vertex="1">
          <mxGeometry y="52" width="120" height="28" as="geometry" />
        </mxCell>
        <mxCell id="E7oqF2Y1Bg3r5n-uWhPA-97" value="TaskEdit" style="swimlane;fontStyle=1;align=center;verticalAlign=top;childLayout=stackLayout;horizontal=1;startSize=26;horizontalStack=0;resizeParent=1;resizeLast=0;collapsible=1;marginBottom=0;rounded=0;shadow=0;strokeWidth=1;fillColor=#cdeb8b;strokeColor=#36393d;fontSize=13;" parent="WIyWlLk6GJQsqaUBKTNV-1" vertex="1">
          <mxGeometry x="-570" y="-2630" width="120" height="80" as="geometry">
            <mxRectangle x="230" y="140" width="160" height="26" as="alternateBounds" />
          </mxGeometry>
        </mxCell>
        <mxCell id="E7oqF2Y1Bg3r5n-uWhPA-98" value="Â " style="text;align=left;verticalAlign=top;spacingLeft=4;spacingRight=4;overflow=hidden;rotatable=0;points=[[0,0.5],[1,0.5]];portConstraint=eastwest;fillColor=#cdeb8b;strokeColor=#36393d;" parent="E7oqF2Y1Bg3r5n-uWhPA-97" vertex="1">
          <mxGeometry y="26" width="120" height="26" as="geometry" />
        </mxCell>
        <mxCell id="E7oqF2Y1Bg3r5n-uWhPA-99" value="+ show()" style="text;align=left;verticalAlign=top;spacingLeft=4;spacingRight=4;overflow=hidden;rotatable=0;points=[[0,0.5],[1,0.5]];portConstraint=eastwest;fillColor=#cdeb8b;strokeColor=#36393d;" parent="E7oqF2Y1Bg3r5n-uWhPA-97" vertex="1">
          <mxGeometry y="52" width="120" height="28" as="geometry" />
        </mxCell>
        <mxCell id="E7oqF2Y1Bg3r5n-uWhPA-104" value="" style="endArrow=block;endSize=14;endFill=0;shadow=0;strokeWidth=1;rounded=0;elbow=vertical;fillColor=#ffcccc;strokeColor=#36393d;entryX=1;entryY=0.5;entryDx=0;entryDy=0;" parent="WIyWlLk6GJQsqaUBKTNV-1" source="E7oqF2Y1Bg3r5n-uWhPA-108" target="E7oqF2Y1Bg3r5n-uWhPA-101" edge="1">
          <mxGeometry width="160" relative="1" as="geometry">
            <mxPoint x="-620" y="-1890" as="sourcePoint" />
            <mxPoint x="-750" y="-2030" as="targetPoint" />
          </mxGeometry>
        </mxCell>
        <mxCell id="E7oqF2Y1Bg3r5n-uWhPA-108" value="TaskDAO" style="swimlane;fontStyle=1;align=center;verticalAlign=top;childLayout=stackLayout;horizontal=1;startSize=26;horizontalStack=0;resizeParent=1;resizeLast=0;collapsible=1;marginBottom=0;rounded=0;shadow=0;strokeWidth=1;fillColor=#ffcccc;strokeColor=#36393d;fontSize=13;" parent="WIyWlLk6GJQsqaUBKTNV-1" vertex="1">
          <mxGeometry x="-550" y="-2470" width="120" height="120" as="geometry">
            <mxRectangle x="230" y="140" width="160" height="26" as="alternateBounds" />
          </mxGeometry>
        </mxCell>
        <mxCell id="E7oqF2Y1Bg3r5n-uWhPA-109" value="Â " style="text;align=left;verticalAlign=top;spacingLeft=4;spacingRight=4;overflow=hidden;rotatable=0;points=[[0,0.5],[1,0.5]];portConstraint=eastwest;fillColor=#ffcccc;strokeColor=#36393d;" parent="E7oqF2Y1Bg3r5n-uWhPA-108" vertex="1">
          <mxGeometry y="26" width="120" height="26" as="geometry" />
        </mxCell>
        <mxCell id="E7oqF2Y1Bg3r5n-uWhPA-110" value="+ get()&#xa;+ delete()&#xa;+ save()" style="text;align=left;verticalAlign=top;spacingLeft=4;spacingRight=4;overflow=hidden;rotatable=0;points=[[0,0.5],[1,0.5]];portConstraint=eastwest;fillColor=#ffcccc;strokeColor=#36393d;" parent="E7oqF2Y1Bg3r5n-uWhPA-108" vertex="1">
          <mxGeometry y="52" width="120" height="68" as="geometry" />
        </mxCell>
        <mxCell id="E7oqF2Y1Bg3r5n-uWhPA-111" value="Model" style="swimlane;fontStyle=1;align=center;verticalAlign=top;childLayout=stackLayout;horizontal=1;startSize=26;horizontalStack=0;resizeParent=1;resizeLast=0;collapsible=1;marginBottom=0;rounded=0;shadow=0;strokeWidth=1;fillColor=#FFCC99;strokeColor=#6D1F00;fontSize=13;fontColor=#000000;" parent="WIyWlLk6GJQsqaUBKTNV-1" vertex="1">
          <mxGeometry x="-220" y="-2380" width="120" height="78" as="geometry">
            <mxRectangle x="230" y="140" width="160" height="26" as="alternateBounds" />
          </mxGeometry>
        </mxCell>
        <mxCell id="E7oqF2Y1Bg3r5n-uWhPA-112" value="Â " style="text;align=left;verticalAlign=top;spacingLeft=4;spacingRight=4;overflow=hidden;rotatable=0;points=[[0,0.5],[1,0.5]];portConstraint=eastwest;fillColor=#ffcc99;strokeColor=#36393d;strokeWidth=1;" parent="E7oqF2Y1Bg3r5n-uWhPA-111" vertex="1">
          <mxGeometry y="26" width="120" height="26" as="geometry" />
        </mxCell>
        <mxCell id="E7oqF2Y1Bg3r5n-uWhPA-113" value="+ Model(data)" style="text;align=left;verticalAlign=top;spacingLeft=4;spacingRight=4;overflow=hidden;rotatable=0;points=[[0,0.5],[1,0.5]];portConstraint=eastwest;fillColor=#ffcc99;strokeColor=#36393d;strokeWidth=1;" parent="E7oqF2Y1Bg3r5n-uWhPA-111" vertex="1">
          <mxGeometry y="52" width="120" height="26" as="geometry" />
        </mxCell>
        <mxCell id="E7oqF2Y1Bg3r5n-uWhPA-114" value="" style="endArrow=block;endSize=15;endFill=0;shadow=0;strokeWidth=1;rounded=0;elbow=vertical;fillColor=#ffcc99;strokeColor=#36393d;" parent="WIyWlLk6GJQsqaUBKTNV-1" source="E7oqF2Y1Bg3r5n-uWhPA-116" target="E7oqF2Y1Bg3r5n-uWhPA-111" edge="1">
          <mxGeometry width="160" relative="1" as="geometry">
            <mxPoint x="-260" y="-2190" as="sourcePoint" />
            <mxPoint x="-360" y="-2279" as="targetPoint" />
          </mxGeometry>
        </mxCell>
        <mxCell id="2OxJAYzB0VSOcrcpk9Fz-23" value="is a" style="edgeLabel;html=1;align=center;verticalAlign=middle;resizable=0;points=[];" parent="E7oqF2Y1Bg3r5n-uWhPA-114" vertex="1" connectable="0">
          <mxGeometry x="-0.0169" relative="1" as="geometry">
            <mxPoint y="-1" as="offset" />
          </mxGeometry>
        </mxCell>
        <mxCell id="E7oqF2Y1Bg3r5n-uWhPA-115" value="" style="endArrow=block;endSize=15;endFill=0;shadow=0;strokeWidth=1;rounded=0;elbow=vertical;fillColor=#ffcc99;strokeColor=#36393d;" parent="WIyWlLk6GJQsqaUBKTNV-1" source="E7oqF2Y1Bg3r5n-uWhPA-119" target="E7oqF2Y1Bg3r5n-uWhPA-111" edge="1">
          <mxGeometry width="160" relative="1" as="geometry">
            <mxPoint x="-10" y="-1910" as="sourcePoint" />
            <mxPoint x="-140" y="-2050" as="targetPoint" />
          </mxGeometry>
        </mxCell>
        <mxCell id="E7oqF2Y1Bg3r5n-uWhPA-116" value="Project" style="swimlane;fontStyle=1;align=center;verticalAlign=top;childLayout=stackLayout;horizontal=1;startSize=26;horizontalStack=0;resizeParent=1;resizeLast=0;collapsible=1;marginBottom=0;rounded=0;shadow=0;strokeWidth=1;fillColor=#ffcc99;strokeColor=#36393d;fontSize=13;" parent="WIyWlLk6GJQsqaUBKTNV-1" vertex="1">
          <mxGeometry x="-340" y="-2630" width="120" height="140" as="geometry">
            <mxRectangle x="230" y="140" width="160" height="26" as="alternateBounds" />
          </mxGeometry>
        </mxCell>
        <mxCell id="E7oqF2Y1Bg3r5n-uWhPA-117" value="- title&#xa;- description&#xa;- owner" style="text;align=left;verticalAlign=top;spacingLeft=4;spacingRight=4;overflow=hidden;rotatable=0;points=[[0,0.5],[1,0.5]];portConstraint=eastwest;fillColor=#ffcc99;strokeColor=#36393d;strokeWidth=1;" parent="E7oqF2Y1Bg3r5n-uWhPA-116" vertex="1">
          <mxGeometry y="26" width="120" height="54" as="geometry" />
        </mxCell>
        <mxCell id="E7oqF2Y1Bg3r5n-uWhPA-118" value="+ getTitle()&#xa;+ getDescription&#xa;+ getOwner()" style="text;align=left;verticalAlign=top;spacingLeft=4;spacingRight=4;overflow=hidden;rotatable=0;points=[[0,0.5],[1,0.5]];portConstraint=eastwest;fillColor=#ffcc99;strokeColor=#36393d;strokeWidth=1;" parent="E7oqF2Y1Bg3r5n-uWhPA-116" vertex="1">
          <mxGeometry y="80" width="120" height="60" as="geometry" />
        </mxCell>
        <mxCell id="E7oqF2Y1Bg3r5n-uWhPA-119" value="Task" style="swimlane;fontStyle=1;align=center;verticalAlign=top;childLayout=stackLayout;horizontal=1;startSize=26;horizontalStack=0;resizeParent=1;resizeLast=0;collapsible=1;marginBottom=0;rounded=0;shadow=0;strokeWidth=1;fillColor=#ffcc99;strokeColor=#36393d;fontSize=13;" parent="WIyWlLk6GJQsqaUBKTNV-1" vertex="1">
          <mxGeometry x="-320" y="-2180" width="120" height="200" as="geometry">
            <mxRectangle x="230" y="140" width="160" height="26" as="alternateBounds" />
          </mxGeometry>
        </mxCell>
        <mxCell id="E7oqF2Y1Bg3r5n-uWhPA-120" value="- taskNumber&#xa;- title&#xa;- description&#xa;- worker&#xa;- status" style="text;align=left;verticalAlign=top;spacingLeft=4;spacingRight=4;overflow=hidden;rotatable=0;points=[[0,0.5],[1,0.5]];portConstraint=eastwest;fillColor=#ffcc99;strokeColor=#36393d;strokeWidth=1;" parent="E7oqF2Y1Bg3r5n-uWhPA-119" vertex="1">
          <mxGeometry y="26" width="120" height="84" as="geometry" />
        </mxCell>
        <mxCell id="E7oqF2Y1Bg3r5n-uWhPA-121" value="+ getTaskNumber()&#xa;+ getProject()&#xa;+ getTitle()&#xa;+ getDescription()&#xa;+ getWorker()&#xa;" style="text;align=left;verticalAlign=top;spacingLeft=4;spacingRight=4;overflow=hidden;rotatable=0;points=[[0,0.5],[1,0.5]];portConstraint=eastwest;fillColor=#ffcc99;strokeColor=#36393d;strokeWidth=1;" parent="E7oqF2Y1Bg3r5n-uWhPA-119" vertex="1">
          <mxGeometry y="110" width="120" height="90" as="geometry" />
        </mxCell>
        <mxCell id="E7oqF2Y1Bg3r5n-uWhPA-122" value="Controller" style="swimlane;fontStyle=1;align=center;verticalAlign=top;childLayout=stackLayout;horizontal=1;startSize=26;horizontalStack=0;resizeParent=1;resizeLast=0;collapsible=1;marginBottom=0;rounded=0;shadow=0;strokeWidth=1;fillColor=#CCE5FF;strokeColor=#001DBC;fontSize=13;fontColor=#000000;" parent="WIyWlLk6GJQsqaUBKTNV-1" vertex="1">
          <mxGeometry x="-800" y="-1990" width="120" height="78" as="geometry">
            <mxRectangle x="230" y="140" width="160" height="26" as="alternateBounds" />
          </mxGeometry>
        </mxCell>
        <mxCell id="E7oqF2Y1Bg3r5n-uWhPA-123" value="Â " style="text;align=left;verticalAlign=top;spacingLeft=4;spacingRight=4;overflow=hidden;rotatable=0;points=[[0,0.5],[1,0.5]];portConstraint=eastwest;fillColor=#cce5ff;strokeColor=#36393d;" parent="E7oqF2Y1Bg3r5n-uWhPA-122" vertex="1">
          <mxGeometry y="26" width="120" height="26" as="geometry" />
        </mxCell>
        <mxCell id="E7oqF2Y1Bg3r5n-uWhPA-124" value="+ run()" style="text;align=left;verticalAlign=top;spacingLeft=4;spacingRight=4;overflow=hidden;rotatable=0;points=[[0,0.5],[1,0.5]];portConstraint=eastwest;fillColor=#cce5ff;strokeColor=#36393d;" parent="E7oqF2Y1Bg3r5n-uWhPA-122" vertex="1">
          <mxGeometry y="52" width="120" height="26" as="geometry" />
        </mxCell>
        <mxCell id="E7oqF2Y1Bg3r5n-uWhPA-125" value="" style="endArrow=block;endSize=15;endFill=0;shadow=0;strokeWidth=1;rounded=0;elbow=vertical;fillColor=#cce5ff;strokeColor=#36393d;" parent="WIyWlLk6GJQsqaUBKTNV-1" source="E7oqF2Y1Bg3r5n-uWhPA-134" target="E7oqF2Y1Bg3r5n-uWhPA-122" edge="1">
          <mxGeometry width="160" relative="1" as="geometry">
            <mxPoint x="-900" y="-2050" as="sourcePoint" />
            <mxPoint x="-1000" y="-2139" as="targetPoint" />
          </mxGeometry>
        </mxCell>
        <mxCell id="E7oqF2Y1Bg3r5n-uWhPA-126" value="" style="endArrow=block;endSize=15;endFill=0;shadow=0;strokeWidth=1;rounded=0;elbow=vertical;fillColor=#cce5ff;strokeColor=#36393d;" parent="WIyWlLk6GJQsqaUBKTNV-1" source="E7oqF2Y1Bg3r5n-uWhPA-131" target="E7oqF2Y1Bg3r5n-uWhPA-122" edge="1">
          <mxGeometry width="160" relative="1" as="geometry">
            <mxPoint x="-1010" y="-1740" as="sourcePoint" />
            <mxPoint x="-1140" y="-1880" as="targetPoint" />
          </mxGeometry>
        </mxCell>
        <mxCell id="E7oqF2Y1Bg3r5n-uWhPA-127" value="" style="endArrow=block;endSize=15;endFill=0;shadow=0;strokeWidth=1;rounded=0;elbow=vertical;fillColor=#cce5ff;strokeColor=#36393d;" parent="WIyWlLk6GJQsqaUBKTNV-1" source="E7oqF2Y1Bg3r5n-uWhPA-128" target="E7oqF2Y1Bg3r5n-uWhPA-122" edge="1">
          <mxGeometry width="160" relative="1" as="geometry">
            <mxPoint x="-870" y="-1780" as="sourcePoint" />
            <mxPoint x="-1000" y="-1920" as="targetPoint" />
          </mxGeometry>
        </mxCell>
        <mxCell id="E7oqF2Y1Bg3r5n-uWhPA-128" value="ResetController" style="swimlane;fontStyle=1;align=center;verticalAlign=top;childLayout=stackLayout;horizontal=1;startSize=26;horizontalStack=0;resizeParent=1;resizeLast=0;collapsible=1;marginBottom=0;rounded=0;shadow=0;strokeWidth=1;fillColor=#cce5ff;strokeColor=#36393d;fontSize=13;" parent="WIyWlLk6GJQsqaUBKTNV-1" vertex="1">
          <mxGeometry x="-800" y="-2150" width="120" height="80" as="geometry">
            <mxRectangle x="230" y="140" width="160" height="26" as="alternateBounds" />
          </mxGeometry>
        </mxCell>
        <mxCell id="E7oqF2Y1Bg3r5n-uWhPA-129" value="Â " style="text;align=left;verticalAlign=top;spacingLeft=4;spacingRight=4;overflow=hidden;rotatable=0;points=[[0,0.5],[1,0.5]];portConstraint=eastwest;fillColor=#cce5ff;strokeColor=#36393d;" parent="E7oqF2Y1Bg3r5n-uWhPA-128" vertex="1">
          <mxGeometry y="26" width="120" height="26" as="geometry" />
        </mxCell>
        <mxCell id="E7oqF2Y1Bg3r5n-uWhPA-130" value="+ run()" style="text;align=left;verticalAlign=top;spacingLeft=4;spacingRight=4;overflow=hidden;rotatable=0;points=[[0,0.5],[1,0.5]];portConstraint=eastwest;fillColor=#cce5ff;strokeColor=#36393d;" parent="E7oqF2Y1Bg3r5n-uWhPA-128" vertex="1">
          <mxGeometry y="52" width="120" height="28" as="geometry" />
        </mxCell>
        <mxCell id="E7oqF2Y1Bg3r5n-uWhPA-131" value="ProjectController" style="swimlane;fontStyle=1;align=center;verticalAlign=top;childLayout=stackLayout;horizontal=1;startSize=26;horizontalStack=0;resizeParent=1;resizeLast=0;collapsible=1;marginBottom=0;rounded=0;shadow=0;strokeWidth=1;fillColor=#cce5ff;strokeColor=#36393d;fontSize=13;" parent="WIyWlLk6GJQsqaUBKTNV-1" vertex="1">
          <mxGeometry x="-1020" y="-2150" width="120" height="80" as="geometry">
            <mxRectangle x="230" y="140" width="160" height="26" as="alternateBounds" />
          </mxGeometry>
        </mxCell>
        <mxCell id="E7oqF2Y1Bg3r5n-uWhPA-132" value="Â " style="text;align=left;verticalAlign=top;spacingLeft=4;spacingRight=4;overflow=hidden;rotatable=0;points=[[0,0.5],[1,0.5]];portConstraint=eastwest;fillColor=#cce5ff;strokeColor=#36393d;" parent="E7oqF2Y1Bg3r5n-uWhPA-131" vertex="1">
          <mxGeometry y="26" width="120" height="26" as="geometry" />
        </mxCell>
        <mxCell id="E7oqF2Y1Bg3r5n-uWhPA-133" value="+ run()" style="text;align=left;verticalAlign=top;spacingLeft=4;spacingRight=4;overflow=hidden;rotatable=0;points=[[0,0.5],[1,0.5]];portConstraint=eastwest;fillColor=#cce5ff;strokeColor=#36393d;" parent="E7oqF2Y1Bg3r5n-uWhPA-131" vertex="1">
          <mxGeometry y="52" width="120" height="28" as="geometry" />
        </mxCell>
        <mxCell id="E7oqF2Y1Bg3r5n-uWhPA-134" value="TaskController" style="swimlane;fontStyle=1;align=center;verticalAlign=top;childLayout=stackLayout;horizontal=1;startSize=26;horizontalStack=0;resizeParent=1;resizeLast=0;collapsible=1;marginBottom=0;rounded=0;shadow=0;strokeWidth=1;fillColor=#cce5ff;strokeColor=#36393d;fontSize=13;" parent="WIyWlLk6GJQsqaUBKTNV-1" vertex="1">
          <mxGeometry x="-570" y="-2150" width="120" height="80" as="geometry">
            <mxRectangle x="230" y="140" width="160" height="26" as="alternateBounds" />
          </mxGeometry>
        </mxCell>
        <mxCell id="E7oqF2Y1Bg3r5n-uWhPA-135" value="Â " style="text;align=left;verticalAlign=top;spacingLeft=4;spacingRight=4;overflow=hidden;rotatable=0;points=[[0,0.5],[1,0.5]];portConstraint=eastwest;fillColor=#cce5ff;strokeColor=#36393d;" parent="E7oqF2Y1Bg3r5n-uWhPA-134" vertex="1">
          <mxGeometry y="26" width="120" height="26" as="geometry" />
        </mxCell>
        <mxCell id="E7oqF2Y1Bg3r5n-uWhPA-136" value="+ run()" style="text;align=left;verticalAlign=top;spacingLeft=4;spacingRight=4;overflow=hidden;rotatable=0;points=[[0,0.5],[1,0.5]];portConstraint=eastwest;fillColor=#cce5ff;strokeColor=#36393d;" parent="E7oqF2Y1Bg3r5n-uWhPA-134" vertex="1">
          <mxGeometry y="52" width="120" height="28" as="geometry" />
        </mxCell>
        <mxCell id="E7oqF2Y1Bg3r5n-uWhPA-149" value="" style="endArrow=diamondThin;endFill=1;endSize=24;html=1;rounded=0;strokeWidth=1;fontSize=13;" parent="WIyWlLk6GJQsqaUBKTNV-1" source="E7oqF2Y1Bg3r5n-uWhPA-119" target="E7oqF2Y1Bg3r5n-uWhPA-118" edge="1">
          <mxGeometry width="160" relative="1" as="geometry">
            <mxPoint x="-250" y="-2030" as="sourcePoint" />
            <mxPoint x="-90" y="-2030" as="targetPoint" />
          </mxGeometry>
        </mxCell>
        <mxCell id="yenj7vGyvHDB7Rq8rfGr-0" value="1" style="edgeLabel;html=1;align=center;verticalAlign=middle;resizable=0;points=[];fontSize=13;" parent="E7oqF2Y1Bg3r5n-uWhPA-149" vertex="1" connectable="0">
          <mxGeometry x="0.7071" y="1" relative="1" as="geometry">
            <mxPoint x="-29" y="-30" as="offset" />
          </mxGeometry>
        </mxCell>
        <mxCell id="yenj7vGyvHDB7Rq8rfGr-1" value="0..&lt;font style=&quot;font-size: 16px;&quot;&gt;*&lt;/font&gt;" style="edgeLabel;html=1;align=center;verticalAlign=middle;resizable=0;points=[];fontSize=13;" parent="E7oqF2Y1Bg3r5n-uWhPA-149" vertex="1" connectable="0">
          <mxGeometry x="-0.8059" relative="1" as="geometry">
            <mxPoint x="-20" y="13" as="offset" />
          </mxGeometry>
        </mxCell>
        <mxCell id="E7oqF2Y1Bg3r5n-uWhPA-153" value="Project Manager 1&amp;nbsp; -&amp;nbsp; Package and Class Diagram" style="text;html=1;align=left;verticalAlign=middle;resizable=0;points=[];autosize=1;strokeColor=none;fillColor=none;fontSize=21;fontStyle=1" parent="WIyWlLk6GJQsqaUBKTNV-1" vertex="1">
          <mxGeometry x="-1050" y="-2880" width="510" height="40" as="geometry" />
        </mxCell>
        <mxCell id="E7oqF2Y1Bg3r5n-uWhPA-154" value="Alexander Boogaard -&amp;nbsp; Student Avans Hogeschool&amp;nbsp; -&amp;nbsp; 2023-11-29" style="text;html=1;align=left;verticalAlign=middle;resizable=0;points=[];autosize=1;fontSize=12;fontStyle=2;labelBackgroundColor=none;fontColor=#696969;" parent="WIyWlLk6GJQsqaUBKTNV-1" vertex="1">
          <mxGeometry x="-1110" y="-1890" width="370" height="30" as="geometry" />
        </mxCell>
        <mxCell id="xL1izJkVqLdVVamuMfSx-2" value="&lt;h1 style=&quot;font-size: 15px;&quot;&gt;view&lt;/h1&gt;" style="text;html=1;strokeColor=none;fillColor=none;spacing=5;spacingTop=-20;whiteSpace=wrap;overflow=hidden;rounded=0;fontSize=15;" parent="WIyWlLk6GJQsqaUBKTNV-1" vertex="1">
          <mxGeometry x="-1110" y="-2820" width="90" height="20" as="geometry" />
        </mxCell>
        <mxCell id="xL1izJkVqLdVVamuMfSx-7" value="" style="endArrow=open;endSize=12;dashed=1;html=1;rounded=0;fontSize=15;entryX=0.497;entryY=0.085;entryDx=0;entryDy=0;entryPerimeter=0;exitX=0.5;exitY=1;exitDx=0;exitDy=0;exitPerimeter=0;" parent="WIyWlLk6GJQsqaUBKTNV-1" source="bZ6SmDlan108wGOM-JAQ-1" target="bZ6SmDlan108wGOM-JAQ-2" edge="1">
          <mxGeometry x="0.044" y="-23" width="160" relative="1" as="geometry">
            <mxPoint x="-740" y="-2510" as="sourcePoint" />
            <mxPoint x="-735" y="-2430" as="targetPoint" />
            <mxPoint as="offset" />
          </mxGeometry>
        </mxCell>
        <mxCell id="2OxJAYzB0VSOcrcpk9Fz-28" value="&lt;font style=&quot;font-size: 13px;&quot;&gt;uses&lt;/font&gt;" style="edgeLabel;html=1;align=center;verticalAlign=middle;resizable=0;points=[];" parent="xL1izJkVqLdVVamuMfSx-7" vertex="1" connectable="0">
          <mxGeometry x="0.0219" y="-1" relative="1" as="geometry">
            <mxPoint as="offset" />
          </mxGeometry>
        </mxCell>
        <mxCell id="xL1izJkVqLdVVamuMfSx-8" value="" style="endArrow=open;endSize=12;dashed=1;html=1;rounded=0;fontSize=15;entryX=0.5;entryY=1;entryDx=0;entryDy=0;entryPerimeter=0;exitX=0.502;exitY=0.065;exitDx=0;exitDy=0;exitPerimeter=0;" parent="WIyWlLk6GJQsqaUBKTNV-1" source="bZ6SmDlan108wGOM-JAQ-4" target="bZ6SmDlan108wGOM-JAQ-2" edge="1">
          <mxGeometry x="-0.0347" y="-20" width="160" relative="1" as="geometry">
            <mxPoint x="-739.9999999999999" y="-2183" as="sourcePoint" />
            <mxPoint x="-739.358898678414" y="-2260" as="targetPoint" />
            <mxPoint as="offset" />
          </mxGeometry>
        </mxCell>
        <mxCell id="xL1izJkVqLdVVamuMfSx-10" value="" style="endArrow=open;endSize=12;dashed=1;html=1;rounded=0;fontSize=15;exitX=0.998;exitY=0.56;exitDx=0;exitDy=0;exitPerimeter=0;" parent="WIyWlLk6GJQsqaUBKTNV-1" source="bZ6SmDlan108wGOM-JAQ-1" edge="1">
          <mxGeometry x="0.044" y="-23" width="160" relative="1" as="geometry">
            <mxPoint x="-369.358898678414" y="-2540" as="sourcePoint" />
            <mxPoint x="-350" y="-2652" as="targetPoint" />
            <mxPoint as="offset" />
          </mxGeometry>
        </mxCell>
        <mxCell id="xL1izJkVqLdVVamuMfSx-12" value="" style="endArrow=open;endSize=12;dashed=1;html=1;rounded=0;fontSize=15;exitX=0.998;exitY=0.56;exitDx=0;exitDy=0;exitPerimeter=0;" parent="WIyWlLk6GJQsqaUBKTNV-1" edge="1">
          <mxGeometry x="0.044" y="-23" width="160" relative="1" as="geometry">
            <mxPoint x="-420.0000000000002" y="-2340" as="sourcePoint" />
            <mxPoint x="-350" y="-2340" as="targetPoint" />
            <mxPoint as="offset" />
          </mxGeometry>
        </mxCell>
        <mxCell id="xL1izJkVqLdVVamuMfSx-14" value="uses" style="endArrow=open;endSize=12;dashed=1;html=1;rounded=0;fontSize=13;exitX=0.998;exitY=0.56;exitDx=0;exitDy=0;exitPerimeter=0;" parent="WIyWlLk6GJQsqaUBKTNV-1" edge="1">
          <mxGeometry x="-0.1429" y="-20" width="160" relative="1" as="geometry">
            <mxPoint x="-420" y="-2040" as="sourcePoint" />
            <mxPoint x="-350" y="-2040" as="targetPoint" />
            <mxPoint as="offset" />
          </mxGeometry>
        </mxCell>
        <mxCell id="xL1izJkVqLdVVamuMfSx-15" value="&lt;h1 style=&quot;font-size: 15px;&quot;&gt;model&lt;/h1&gt;" style="text;html=1;strokeColor=none;fillColor=none;spacing=5;spacingTop=-20;whiteSpace=wrap;overflow=hidden;rounded=0;fontSize=15;" parent="WIyWlLk6GJQsqaUBKTNV-1" vertex="1">
          <mxGeometry x="-350" y="-2820" width="90" height="20" as="geometry" />
        </mxCell>
        <mxCell id="yenj7vGyvHDB7Rq8rfGr-4" value="uses" style="text;html=1;align=center;verticalAlign=middle;resizable=0;points=[];autosize=1;strokeColor=none;fillColor=none;fontSize=13;" parent="WIyWlLk6GJQsqaUBKTNV-1" vertex="1">
          <mxGeometry x="-740" y="-2230" width="50" height="30" as="geometry" />
        </mxCell>
        <mxCell id="yenj7vGyvHDB7Rq8rfGr-6" value="uses" style="text;html=1;align=center;verticalAlign=middle;resizable=0;points=[];autosize=1;strokeColor=none;fillColor=none;fontSize=13;" parent="WIyWlLk6GJQsqaUBKTNV-1" vertex="1">
          <mxGeometry x="-420" y="-2342" width="50" height="30" as="geometry" />
        </mxCell>
        <mxCell id="yenj7vGyvHDB7Rq8rfGr-7" value="uses" style="text;html=1;align=center;verticalAlign=middle;resizable=0;points=[];autosize=1;strokeColor=none;fillColor=none;fontSize=13;" parent="WIyWlLk6GJQsqaUBKTNV-1" vertex="1">
          <mxGeometry x="-420" y="-2650" width="50" height="30" as="geometry" />
        </mxCell>
        <mxCell id="yenj7vGyvHDB7Rq8rfGr-13" value="is a" style="text;html=1;align=center;verticalAlign=middle;resizable=0;points=[];autosize=1;strokeColor=none;fillColor=none;fontSize=13;" parent="WIyWlLk6GJQsqaUBKTNV-1" vertex="1">
          <mxGeometry x="-660" y="-2440" width="40" height="30" as="geometry" />
        </mxCell>
        <mxCell id="yenj7vGyvHDB7Rq8rfGr-14" value="is a" style="text;html=1;align=center;verticalAlign=middle;resizable=0;points=[];autosize=1;strokeColor=none;fillColor=none;fontSize=13;" parent="WIyWlLk6GJQsqaUBKTNV-1" vertex="1">
          <mxGeometry x="-910" y="-2440" width="40" height="30" as="geometry" />
        </mxCell>
        <mxCell id="yenj7vGyvHDB7Rq8rfGr-15" value="is a" style="text;html=1;align=center;verticalAlign=middle;resizable=0;points=[];autosize=1;strokeColor=none;fillColor=none;fontSize=13;" parent="WIyWlLk6GJQsqaUBKTNV-1" vertex="1">
          <mxGeometry x="-900" y="-2040" width="40" height="30" as="geometry" />
        </mxCell>
        <mxCell id="yenj7vGyvHDB7Rq8rfGr-16" value="is a" style="text;html=1;align=center;verticalAlign=middle;resizable=0;points=[];autosize=1;strokeColor=none;fillColor=none;fontSize=13;" parent="WIyWlLk6GJQsqaUBKTNV-1" vertex="1">
          <mxGeometry x="-740" y="-2060" width="40" height="30" as="geometry" />
        </mxCell>
        <mxCell id="yenj7vGyvHDB7Rq8rfGr-17" value="is a" style="text;html=1;align=center;verticalAlign=middle;resizable=0;points=[];autosize=1;strokeColor=none;fillColor=none;fontSize=13;" parent="WIyWlLk6GJQsqaUBKTNV-1" vertex="1">
          <mxGeometry x="-620" y="-2030" width="40" height="30" as="geometry" />
        </mxCell>
        <mxCell id="yenj7vGyvHDB7Rq8rfGr-18" value="is a" style="text;html=1;align=center;verticalAlign=middle;resizable=0;points=[];autosize=1;strokeColor=none;fillColor=none;fontSize=13;" parent="WIyWlLk6GJQsqaUBKTNV-1" vertex="1">
          <mxGeometry x="-200" y="-2250" width="40" height="30" as="geometry" />
        </mxCell>
        <mxCell id="2OxJAYzB0VSOcrcpk9Fz-5" value="LogIn" style="swimlane;fontStyle=1;align=center;verticalAlign=top;childLayout=stackLayout;horizontal=1;startSize=26;horizontalStack=0;resizeParent=1;resizeLast=0;collapsible=1;marginBottom=0;rounded=0;shadow=0;strokeWidth=1;fillColor=#cdeb8b;strokeColor=#36393d;fontSize=13;" parent="WIyWlLk6GJQsqaUBKTNV-1" vertex="1">
          <mxGeometry x="-570" y="-2778" width="120" height="80" as="geometry">
            <mxRectangle x="230" y="140" width="160" height="26" as="alternateBounds" />
          </mxGeometry>
        </mxCell>
        <mxCell id="2OxJAYzB0VSOcrcpk9Fz-6" value="Â " style="text;align=left;verticalAlign=top;spacingLeft=4;spacingRight=4;overflow=hidden;rotatable=0;points=[[0,0.5],[1,0.5]];portConstraint=eastwest;fillColor=#cdeb8b;strokeColor=#36393d;" parent="2OxJAYzB0VSOcrcpk9Fz-5" vertex="1">
          <mxGeometry y="26" width="120" height="26" as="geometry" />
        </mxCell>
        <mxCell id="2OxJAYzB0VSOcrcpk9Fz-7" value="+ show()" style="text;align=left;verticalAlign=top;spacingLeft=4;spacingRight=4;overflow=hidden;rotatable=0;points=[[0,0.5],[1,0.5]];portConstraint=eastwest;fillColor=#cdeb8b;strokeColor=#36393d;" parent="2OxJAYzB0VSOcrcpk9Fz-5" vertex="1">
          <mxGeometry y="52" width="120" height="28" as="geometry" />
        </mxCell>
        <mxCell id="2OxJAYzB0VSOcrcpk9Fz-9" value="" style="endArrow=block;endSize=14;endFill=0;shadow=0;strokeWidth=1;rounded=0;elbow=vertical;fillColor=#cdeb8b;strokeColor=#36393d;entryX=1;entryY=0.5;entryDx=0;entryDy=0;exitX=0;exitY=0.5;exitDx=0;exitDy=0;" parent="WIyWlLk6GJQsqaUBKTNV-1" source="2OxJAYzB0VSOcrcpk9Fz-5" target="E7oqF2Y1Bg3r5n-uWhPA-0" edge="1">
          <mxGeometry width="160" relative="1" as="geometry">
            <mxPoint x="-548.5" y="-2650" as="sourcePoint" />
            <mxPoint x="-651.5" y="-2720" as="targetPoint" />
          </mxGeometry>
        </mxCell>
        <mxCell id="2OxJAYzB0VSOcrcpk9Fz-10" value="is a" style="edgeLabel;html=1;align=center;verticalAlign=middle;resizable=0;points=[];" parent="2OxJAYzB0VSOcrcpk9Fz-9" vertex="1" connectable="0">
          <mxGeometry x="-0.0287" y="-2" relative="1" as="geometry">
            <mxPoint x="-1" y="-10" as="offset" />
          </mxGeometry>
        </mxCell>
        <mxCell id="2OxJAYzB0VSOcrcpk9Fz-20" value="User" style="swimlane;fontStyle=1;align=center;verticalAlign=top;childLayout=stackLayout;horizontal=1;startSize=26;horizontalStack=0;resizeParent=1;resizeLast=0;collapsible=1;marginBottom=0;rounded=0;shadow=0;strokeWidth=1;fillColor=#ffcc99;strokeColor=#36393d;fontSize=13;" parent="WIyWlLk6GJQsqaUBKTNV-1" vertex="1">
          <mxGeometry x="-200" y="-2780" width="120" height="140" as="geometry">
            <mxRectangle x="230" y="140" width="160" height="26" as="alternateBounds" />
          </mxGeometry>
        </mxCell>
        <mxCell id="2OxJAYzB0VSOcrcpk9Fz-21" value="- username&#xa;- password&#xa;- role" style="text;align=left;verticalAlign=top;spacingLeft=4;spacingRight=4;overflow=hidden;rotatable=0;points=[[0,0.5],[1,0.5]];portConstraint=eastwest;fillColor=#ffcc99;strokeColor=#36393d;strokeWidth=1;" parent="2OxJAYzB0VSOcrcpk9Fz-20" vertex="1">
          <mxGeometry y="26" width="120" height="54" as="geometry" />
        </mxCell>
        <mxCell id="2OxJAYzB0VSOcrcpk9Fz-22" value="+ getUsername()&#xa;+ getPassword()&#xa;+ getRole()" style="text;align=left;verticalAlign=top;spacingLeft=4;spacingRight=4;overflow=hidden;rotatable=0;points=[[0,0.5],[1,0.5]];portConstraint=eastwest;fillColor=#ffcc99;strokeColor=#36393d;strokeWidth=1;" parent="2OxJAYzB0VSOcrcpk9Fz-20" vertex="1">
          <mxGeometry y="80" width="120" height="60" as="geometry" />
        </mxCell>
        <mxCell id="2OxJAYzB0VSOcrcpk9Fz-24" style="edgeStyle=orthogonalEdgeStyle;rounded=0;orthogonalLoop=1;jettySize=auto;html=1;entryX=0.665;entryY=-0.003;entryDx=0;entryDy=0;entryPerimeter=0;endArrow=block;endFill=0;strokeWidth=1;endSize=15;" parent="WIyWlLk6GJQsqaUBKTNV-1" source="2OxJAYzB0VSOcrcpk9Fz-20" target="E7oqF2Y1Bg3r5n-uWhPA-111" edge="1">
          <mxGeometry relative="1" as="geometry" />
        </mxCell>
        <mxCell id="2OxJAYzB0VSOcrcpk9Fz-25" value="is a" style="edgeLabel;html=1;align=center;verticalAlign=middle;resizable=0;points=[];" parent="2OxJAYzB0VSOcrcpk9Fz-24" vertex="1" connectable="0">
          <mxGeometry x="-0.1275" y="-1" relative="1" as="geometry">
            <mxPoint y="-5" as="offset" />
          </mxGeometry>
        </mxCell>
        <mxCell id="2OxJAYzB0VSOcrcpk9Fz-30" value="AuthController" style="swimlane;fontStyle=1;align=center;verticalAlign=top;childLayout=stackLayout;horizontal=1;startSize=26;horizontalStack=0;resizeParent=1;resizeLast=0;collapsible=1;marginBottom=0;rounded=0;shadow=0;strokeWidth=1;fillColor=#cce5ff;strokeColor=#36393d;fontSize=13;" parent="WIyWlLk6GJQsqaUBKTNV-1" vertex="1">
          <mxGeometry x="-1020" y="-1990" width="120" height="80" as="geometry">
            <mxRectangle x="230" y="140" width="160" height="26" as="alternateBounds" />
          </mxGeometry>
        </mxCell>
        <mxCell id="2OxJAYzB0VSOcrcpk9Fz-31" value="Â " style="text;align=left;verticalAlign=top;spacingLeft=4;spacingRight=4;overflow=hidden;rotatable=0;points=[[0,0.5],[1,0.5]];portConstraint=eastwest;fillColor=#cce5ff;strokeColor=#36393d;" parent="2OxJAYzB0VSOcrcpk9Fz-30" vertex="1">
          <mxGeometry y="26" width="120" height="26" as="geometry" />
        </mxCell>
        <mxCell id="2OxJAYzB0VSOcrcpk9Fz-32" value="+ run()" style="text;align=left;verticalAlign=top;spacingLeft=4;spacingRight=4;overflow=hidden;rotatable=0;points=[[0,0.5],[1,0.5]];portConstraint=eastwest;fillColor=#cce5ff;strokeColor=#36393d;" parent="2OxJAYzB0VSOcrcpk9Fz-30" vertex="1">
          <mxGeometry y="52" width="120" height="28" as="geometry" />
        </mxCell>
        <mxCell id="2OxJAYzB0VSOcrcpk9Fz-33" style="edgeStyle=orthogonalEdgeStyle;rounded=0;orthogonalLoop=1;jettySize=auto;html=1;exitX=1;exitY=0.5;exitDx=0;exitDy=0;entryX=0;entryY=0.5;entryDx=0;entryDy=0;endArrow=block;endFill=0;endSize=15;" parent="WIyWlLk6GJQsqaUBKTNV-1" source="2OxJAYzB0VSOcrcpk9Fz-31" target="E7oqF2Y1Bg3r5n-uWhPA-122" edge="1">
          <mxGeometry relative="1" as="geometry" />
        </mxCell>
        <mxCell id="2OxJAYzB0VSOcrcpk9Fz-34" value="&lt;font style=&quot;font-size: 13px;&quot;&gt;is a&lt;br&gt;&lt;/font&gt;" style="edgeLabel;html=1;align=center;verticalAlign=middle;resizable=0;points=[];" parent="2OxJAYzB0VSOcrcpk9Fz-33" vertex="1" connectable="0">
          <mxGeometry x="0.04" relative="1" as="geometry">
            <mxPoint as="offset" />
          </mxGeometry>
        </mxCell>
        <mxCell id="xL1izJkVqLdVVamuMfSx-5" value="&lt;h1 style=&quot;font-size: 15px;&quot;&gt;data abstraction&lt;/h1&gt;" style="text;html=1;strokeColor=none;fillColor=none;spacing=5;spacingTop=-20;whiteSpace=wrap;overflow=hidden;rounded=0;fontSize=15;movable=1;resizable=1;rotatable=1;deletable=1;editable=1;locked=0;connectable=1;" parent="WIyWlLk6GJQsqaUBKTNV-1" vertex="1">
          <mxGeometry x="-1110.0027659574469" y="-2520" width="133.88059701492548" height="20" as="geometry" />
        </mxCell>
        <mxCell id="E7oqF2Y1Bg3r5n-uWhPA-105" value="ProjectDAO" style="swimlane;fontStyle=1;align=center;verticalAlign=top;childLayout=stackLayout;horizontal=1;startSize=26;horizontalStack=0;resizeParent=1;resizeLast=0;collapsible=1;marginBottom=0;rounded=0;shadow=0;strokeWidth=1;fillColor=#ffcccc;strokeColor=#36393d;fontSize=13;" parent="WIyWlLk6GJQsqaUBKTNV-1" vertex="1">
          <mxGeometry x="-1091.9914893617022" y="-2480" width="117.4468085106383" height="120" as="geometry">
            <mxRectangle x="230" y="140" width="160" height="26" as="alternateBounds" />
          </mxGeometry>
        </mxCell>
        <mxCell id="E7oqF2Y1Bg3r5n-uWhPA-106" value="Â " style="text;align=left;verticalAlign=top;spacingLeft=4;spacingRight=4;overflow=hidden;rotatable=0;points=[[0,0.5],[1,0.5]];portConstraint=eastwest;fillColor=#ffcccc;strokeColor=#36393d;" parent="E7oqF2Y1Bg3r5n-uWhPA-105" vertex="1">
          <mxGeometry y="26" width="117.4468085106383" height="26" as="geometry" />
        </mxCell>
        <mxCell id="E7oqF2Y1Bg3r5n-uWhPA-107" value="+ get()&#xa;+ delete()&#xa;+ save()" style="text;align=left;verticalAlign=top;spacingLeft=4;spacingRight=4;overflow=hidden;rotatable=0;points=[[0,0.5],[1,0.5]];portConstraint=eastwest;fillColor=#ffcccc;strokeColor=#36393d;" parent="E7oqF2Y1Bg3r5n-uWhPA-105" vertex="1">
          <mxGeometry y="52" width="117.4468085106383" height="68" as="geometry" />
        </mxCell>
        <mxCell id="2OxJAYzB0VSOcrcpk9Fz-17" value="RoleDAO" style="swimlane;fontStyle=1;align=center;verticalAlign=top;childLayout=stackLayout;horizontal=1;startSize=26;horizontalStack=0;resizeParent=1;resizeLast=0;collapsible=1;marginBottom=0;rounded=0;shadow=0;strokeWidth=1;fillColor=#ffcccc;strokeColor=#36393d;fontSize=13;" parent="WIyWlLk6GJQsqaUBKTNV-1" vertex="1">
          <mxGeometry x="-958.2978723404256" y="-2360" width="117.4468085106383" height="120" as="geometry">
            <mxRectangle x="230" y="140" width="160" height="26" as="alternateBounds" />
          </mxGeometry>
        </mxCell>
        <mxCell id="2OxJAYzB0VSOcrcpk9Fz-18" value="Â " style="text;align=left;verticalAlign=top;spacingLeft=4;spacingRight=4;overflow=hidden;rotatable=0;points=[[0,0.5],[1,0.5]];portConstraint=eastwest;fillColor=#ffcccc;strokeColor=#36393d;" parent="2OxJAYzB0VSOcrcpk9Fz-17" vertex="1">
          <mxGeometry y="26" width="117.4468085106383" height="26" as="geometry" />
        </mxCell>
        <mxCell id="2OxJAYzB0VSOcrcpk9Fz-19" value="+ get()&#xa;+ delete()&#xa;+ save()" style="text;align=left;verticalAlign=top;spacingLeft=4;spacingRight=4;overflow=hidden;rotatable=0;points=[[0,0.5],[1,0.5]];portConstraint=eastwest;fillColor=#ffcccc;strokeColor=#36393d;" parent="2OxJAYzB0VSOcrcpk9Fz-17" vertex="1">
          <mxGeometry y="52" width="117.4468085106383" height="68" as="geometry" />
        </mxCell>
        <mxCell id="E7oqF2Y1Bg3r5n-uWhPA-100" value="DAO" style="swimlane;fontStyle=1;align=center;verticalAlign=top;childLayout=stackLayout;horizontal=1;startSize=26;horizontalStack=0;resizeParent=1;resizeLast=0;collapsible=1;marginBottom=0;rounded=0;shadow=0;strokeWidth=1;fillColor=#FFCCCC;strokeColor=#A50040;fontSize=13;fontColor=default;" parent="WIyWlLk6GJQsqaUBKTNV-1" vertex="1">
          <mxGeometry x="-823.7234042553191" y="-2440" width="117.4468085106383" height="120" as="geometry">
            <mxRectangle x="230" y="140" width="160" height="26" as="alternateBounds" />
          </mxGeometry>
        </mxCell>
        <mxCell id="E7oqF2Y1Bg3r5n-uWhPA-101" value="Â " style="text;align=left;verticalAlign=top;spacingLeft=4;spacingRight=4;overflow=hidden;rotatable=0;points=[[0,0.5],[1,0.5]];portConstraint=eastwest;fillColor=#ffcccc;strokeColor=#36393d;" parent="E7oqF2Y1Bg3r5n-uWhPA-100" vertex="1">
          <mxGeometry y="26" width="117.4468085106383" height="26" as="geometry" />
        </mxCell>
        <mxCell id="E7oqF2Y1Bg3r5n-uWhPA-102" value="+ startListSql()&#xa;+ getObjectSql()&#xa;+ hasNext()&#xa;+ getNext()" style="text;align=left;verticalAlign=top;spacingLeft=4;spacingRight=4;overflow=hidden;rotatable=0;points=[[0,0.5],[1,0.5]];portConstraint=eastwest;fillColor=#ffcccc;strokeColor=#36393d;" parent="E7oqF2Y1Bg3r5n-uWhPA-100" vertex="1">
          <mxGeometry y="52" width="117.4468085106383" height="68" as="geometry" />
        </mxCell>
        <mxCell id="E7oqF2Y1Bg3r5n-uWhPA-103" value="" style="endArrow=block;endSize=14;endFill=0;shadow=0;strokeWidth=1;rounded=0;elbow=vertical;fillColor=#ffcccc;strokeColor=#36393d;entryX=0;entryY=0.5;entryDx=0;entryDy=0;" parent="WIyWlLk6GJQsqaUBKTNV-1" source="E7oqF2Y1Bg3r5n-uWhPA-105" target="E7oqF2Y1Bg3r5n-uWhPA-101" edge="1">
          <mxGeometry width="160" relative="1" as="geometry">
            <mxPoint x="-855.531914893617" y="-2170" as="sourcePoint" />
            <mxPoint x="-953.4042553191489" y="-2259" as="targetPoint" />
          </mxGeometry>
        </mxCell>
        <mxCell id="2OxJAYzB0VSOcrcpk9Fz-12" value="AuthDAO" style="swimlane;fontStyle=1;align=center;verticalAlign=top;childLayout=stackLayout;horizontal=1;startSize=26;horizontalStack=0;resizeParent=1;resizeLast=0;collapsible=1;marginBottom=0;rounded=0;shadow=0;strokeWidth=1;fillColor=#ffcccc;strokeColor=#36393d;fontSize=13;" parent="WIyWlLk6GJQsqaUBKTNV-1" vertex="1">
          <mxGeometry x="-674.4680851063831" y="-2360" width="117.4468085106383" height="120" as="geometry">
            <mxRectangle x="230" y="140" width="160" height="26" as="alternateBounds" />
          </mxGeometry>
        </mxCell>
        <mxCell id="2OxJAYzB0VSOcrcpk9Fz-13" value="Â " style="text;align=left;verticalAlign=top;spacingLeft=4;spacingRight=4;overflow=hidden;rotatable=0;points=[[0,0.5],[1,0.5]];portConstraint=eastwest;fillColor=#ffcccc;strokeColor=#36393d;" parent="2OxJAYzB0VSOcrcpk9Fz-12" vertex="1">
          <mxGeometry y="26" width="117.4468085106383" height="26" as="geometry" />
        </mxCell>
        <mxCell id="2OxJAYzB0VSOcrcpk9Fz-14" value="+ getUser()" style="text;align=left;verticalAlign=top;spacingLeft=4;spacingRight=4;overflow=hidden;rotatable=0;points=[[0,0.5],[1,0.5]];portConstraint=eastwest;fillColor=#ffcccc;strokeColor=#36393d;" parent="2OxJAYzB0VSOcrcpk9Fz-12" vertex="1">
          <mxGeometry y="52" width="117.4468085106383" height="68" as="geometry" />
        </mxCell>
        <mxCell id="2OxJAYzB0VSOcrcpk9Fz-15" value="" style="endArrow=block;endSize=14;endFill=0;shadow=0;strokeWidth=1;rounded=0;elbow=vertical;fillColor=#ffcccc;strokeColor=#36393d;exitX=0;exitY=0.5;exitDx=0;exitDy=0;entryX=1;entryY=0.5;entryDx=0;entryDy=0;" parent="WIyWlLk6GJQsqaUBKTNV-1" source="2OxJAYzB0VSOcrcpk9Fz-13" target="E7oqF2Y1Bg3r5n-uWhPA-102" edge="1">
          <mxGeometry width="160" relative="1" as="geometry">
            <mxPoint x="-718.5106382978722" y="-2310.59" as="sourcePoint" />
            <mxPoint x="-894.6808510638298" y="-2310.59" as="targetPoint" />
          </mxGeometry>
        </mxCell>
        <mxCell id="2OxJAYzB0VSOcrcpk9Fz-16" value="&lt;font style=&quot;font-size: 13px;&quot;&gt;is a&lt;/font&gt;" style="edgeLabel;html=1;align=center;verticalAlign=middle;resizable=0;points=[];" parent="2OxJAYzB0VSOcrcpk9Fz-15" vertex="1" connectable="0">
          <mxGeometry x="0.013" y="3" relative="1" as="geometry">
            <mxPoint x="-2" y="15" as="offset" />
          </mxGeometry>
        </mxCell>
        <mxCell id="2OxJAYzB0VSOcrcpk9Fz-29" value="" style="endArrow=block;endSize=14;endFill=0;shadow=0;strokeWidth=1;rounded=0;elbow=vertical;fillColor=#ffcccc;strokeColor=#36393d;entryX=0;entryY=0.5;entryDx=0;entryDy=0;exitX=1;exitY=0.5;exitDx=0;exitDy=0;" parent="WIyWlLk6GJQsqaUBKTNV-1" source="2OxJAYzB0VSOcrcpk9Fz-18" target="E7oqF2Y1Bg3r5n-uWhPA-102" edge="1">
          <mxGeometry width="160" relative="1" as="geometry">
            <mxPoint x="-972.9787234042553" y="-2410" as="sourcePoint" />
            <mxPoint x="-813.4468085106384" y="-2410" as="targetPoint" />
          </mxGeometry>
        </mxCell>
        <mxCell id="oio7H8gZdXNdozRF6KR3-3" value="" style="endArrow=block;endSize=15;endFill=0;shadow=0;strokeWidth=1;rounded=0;elbow=vertical;fillColor=#cce5ff;strokeColor=#36393d;entryX=1;entryY=0.5;entryDx=0;entryDy=0;exitX=0;exitY=0.5;exitDx=0;exitDy=0;" edge="1" parent="WIyWlLk6GJQsqaUBKTNV-1" source="oio7H8gZdXNdozRF6KR3-0" target="E7oqF2Y1Bg3r5n-uWhPA-123">
          <mxGeometry width="160" relative="1" as="geometry">
            <mxPoint x="-558" y="-2060" as="sourcePoint" />
            <mxPoint x="-674" y="-1980" as="targetPoint" />
          </mxGeometry>
        </mxCell>
        <mxCell id="oio7H8gZdXNdozRF6KR3-4" value="&lt;font style=&quot;font-size: 13px;&quot;&gt;is a&lt;/font&gt;" style="edgeLabel;html=1;align=center;verticalAlign=middle;resizable=0;points=[];" vertex="1" connectable="0" parent="oio7H8gZdXNdozRF6KR3-3">
          <mxGeometry x="-0.0134" relative="1" as="geometry">
            <mxPoint as="offset" />
          </mxGeometry>
        </mxCell>
      </root>
    </mxGraphModel>
  </diagram>
</mxfile>
